<svg width="50" height="50" viewBox="0 0 50 50" xmlns="http://www.w3.org/2000/svg">
    <g fill="#000" fill-rule="evenodd">
        <path d="M6.535 47.812h19.544v-33.79H6.535v33.79zm21.732 0h15.198V2.19H28.267v45.622zm20.639 0h-3.252V1.094C45.654.49 45.164 0 44.559 0H27.173c-.604 0-1.094.49-1.094 1.094v10.738H5.441c-.605 0-1.095.49-1.095 1.095v34.885H1.094a1.094 1.094 0 1 0 0 2.189h47.812a1.094 1.094 0 1 0 0-2.19z"/>
        <path d="M12.63 20.525c-.604 0-1.094.49-1.094 1.095v20.042a1.095 1.095 0 0 0 2.189 0V21.62c0-.605-.49-1.095-1.095-1.095M19.773 20.525c-.604 0-1.094.49-1.094 1.095v20.042a1.095 1.095 0 0 0 2.189 0V21.62c0-.605-.49-1.095-1.095-1.095M33.693 10.882h4.346a1.095 1.095 0 0 0 0-2.188h-4.346a1.094 1.094 0 1 0 0 2.188M33.693 19.575h4.346a1.095 1.095 0 0 0 0-2.189h-4.346a1.094 1.094 0 1 0 0 2.19"/>
    </g>
</svg>
