<svg width="46" height="46" viewBox="0 0 46 46" xmlns="http://www.w3.org/2000/svg" xmlns:xlink="http://www.w3.org/1999/xlink">
    <defs>
        <path id="cy1swd9vpa" d="M0 0h46v45.685H0z"/>
    </defs>
    <g fill="none" fill-rule="evenodd">
        <mask id="5mnuo2p1mb" fill="#fff">
            <use xlink:href="#cy1swd9vpa"/>
        </mask>
        <path d="M10.382 13.8c0-6.221 5.668-11.283 12.635-11.283S35.65 7.579 35.65 13.8c0 6.222-5.667 11.284-12.634 11.284-6.967 0-12.635-5.062-12.635-11.284m35.61 30.154c-.938-8.573-7.402-15.46-16.02-17.906 4.861-2.3 8.196-6.922 8.196-12.248 0-7.61-6.796-13.8-15.151-13.8-8.354 0-15.15 6.19-15.15 13.8 0 5.34 3.351 9.97 8.234 12.265C7.394 28.582.784 35.7.005 44.313a1.26 1.26 0 0 0 2.507.227c.858-9.499 9.865-16.94 20.505-16.94 10.635 0 19.437 7.148 20.473 16.627a1.258 1.258 0 0 0 2.502-.273" fill="#000" mask="url(#5mnuo2p1mb)"/>
    </g>
</svg>
