<svg width="16" height="16" viewBox="0 0 16 16" xmlns="http://www.w3.org/2000/svg" xmlns:xlink="http://www.w3.org/1999/xlink">
    <defs>
        <path id="o95s66pgja" d="M0 0h16v10.03H0z"/>
    </defs>
    <g fill="none" fill-rule="evenodd">
        <g transform="translate(0 2.667)">
            <mask id="9793e2ph7b" fill="#fff">
                <use xlink:href="#o95s66pgja"/>
            </mask>
            <path d="M1.168 5.015C1.695 5.91 3.79 8.939 8 8.939s6.304-3.027 6.832-3.924C14.304 4.118 12.21 1.09 8 1.09c-4.21 0-6.304 3.027-6.832 3.924M8 10.029C2.471 10.03.152 5.451.056 5.256a.545.545 0 0 1 0-.482C.152 4.579 2.471 0 8 0s7.848 4.579 7.944 4.774a.547.547 0 0 1 0 .482c-.096.195-2.415 4.773-7.944 4.773" fill="#B2B2B2" mask="url(#9793e2ph7b)"/>
        </g>
        <path d="M8 5.5A2.184 2.184 0 0 0 5.818 7.68c0 1.203.979 2.182 2.182 2.182a2.184 2.184 0 0 0 2.182-2.182A2.184 2.184 0 0 0 8 5.5m0 5.454a3.276 3.276 0 0 1-3.273-3.273A3.276 3.276 0 0 1 8 4.41a3.276 3.276 0 0 1 3.273 3.272A3.276 3.276 0 0 1 8 10.954" fill="#B2B2B2"/>
    </g>
</svg>
