<svg width="14" height="14" viewBox="0 0 14 14" xmlns="http://www.w3.org/2000/svg" xmlns:xlink="http://www.w3.org/1999/xlink">
    <defs>
        <path id="qp2mn9d3ma" d="M0 0h10.375v4.876H0z"/>
    </defs>
    <g fill="none" fill-rule="evenodd">
        <path d="M7.1 2.87c-1.393 0-2.527 1.003-2.527 2.235S5.707 7.34 7.1 7.34c1.394 0 2.528-1.003 2.528-2.235S8.494 2.87 7.1 2.87m0 5.43c-1.923 0-3.488-1.433-3.488-3.195 0-1.762 1.565-3.196 3.488-3.196 1.924 0 3.489 1.434 3.489 3.196C10.589 6.867 9.024 8.3 7.1 8.3" fill="#222"/>
        <g transform="translate(1.91 7.34)">
            <mask id="cdw34q07lb" fill="#fff">
                <use xlink:href="#qp2mn9d3ma"/>
            </mask>
            <path d="m.481 4.876-.044-.001a.48.48 0 0 1-.435-.522C.222 1.912 2.502 0 5.192 0c2.687 0 4.914 1.836 5.18 4.271a.48.48 0 0 1-.955.104C9.204 2.43 7.387.961 5.191.961 2.994.961 1.136 2.49.96 4.44a.48.48 0 0 1-.478.437" fill="#222" mask="url(#cdw34q07lb)"/>
        </g>
    </g>
</svg>
