<svg width="16" height="16" viewBox="0 0 16 16" xmlns="http://www.w3.org/2000/svg">
    <g fill="#222" fill-rule="evenodd">
        <path d="M2.04 10.723H13.6V2.768H2.04v7.955zm12.035.95H1.565a.475.475 0 0 1-.474-.476V2.293c0-.262.213-.475.475-.475h12.51c.261 0 .474.213.474.475v8.904a.475.475 0 0 1-.475.475z"/>
        <path d="M9.7 8.92h-.022c-.209-.01-.22-.01-2.179-1.998L5.663 8.757a.475.475 0 1 1-.67-.671l2.173-2.174c.089-.09.21-.139.336-.139h.001c.127 0 .248.051.337.141.564.574 1.402 1.42 1.853 1.867l2.626-2.626a.476.476 0 0 1 .671.672l-2.955 2.955a.475.475 0 0 1-.335.139M6.137 13.518h.95v-2.09h-.95zM8.554 13.518h.95v-2.09h-.95z"/>
        <path d="M11.334 14.339H4.307a.475.475 0 0 1 0-.95h7.027a.475.475 0 0 1 0 .95"/>
    </g>
</svg>
