<svg width="14" height="14" viewBox="0 0 14 14" xmlns="http://www.w3.org/2000/svg" xmlns:xlink="http://www.w3.org/1999/xlink">
    <defs>
        <path id="7lkheli4za" d="M0 0h13.324v12.106H0z"/>
    </defs>
    <g fill="none" fill-rule="evenodd">
        <g transform="translate(.318 .955)">
            <mask id="74wvuj3r8b" fill="#fff">
                <use xlink:href="#7lkheli4za"/>
            </mask>
            <path d="M9.86 11.268a2.63 2.63 0 0 1-2.627-2.627A2.63 2.63 0 0 1 9.86 6.016a2.63 2.63 0 0 1 2.626 2.627 2.63 2.63 0 0 1-2.627 2.626M5.445 10.05c-2.715 0-4.607-.983-4.607-1.865V6.924c.948.746 2.62 1.223 4.607 1.223.335 0 .667-.017.993-.045a3.47 3.47 0 0 0 .227 1.877 10.36 10.36 0 0 1-1.22.07m0-9.211c2.714 0 4.606.983 4.606 1.865S8.158 4.568 5.444 4.568c-2.715 0-4.607-.983-4.607-1.865S2.73.838 5.444.838m4.416 4.34a3.468 3.468 0 0 0-3.164 2.055c-.407.05-.826.076-1.252.076-2.715 0-4.607-.983-4.607-1.865V4.183c.948.746 2.62 1.223 4.607 1.223 1.986 0 3.658-.477 4.606-1.223v1a3.766 3.766 0 0 0-.19-.006m1.028.156v-2.65l-.002-.016C10.849 1.144 8.523 0 5.444 0 2.34 0 0 1.162 0 2.703v5.482c0 1.54 2.34 2.703 5.444 2.703.574 0 1.138-.044 1.678-.128a3.46 3.46 0 0 0 2.738 1.346 3.468 3.468 0 0 0 3.464-3.464 3.47 3.47 0 0 0-2.436-3.31" fill="#222" mask="url(#74wvuj3r8b)"/>
        </g>
        <path d="m10.956 10.413-.127-.486h.231l-.104.486zm-.83-.962.071-.274.071.274h-.142zm-.692.962-.105-.486h.23l-.125.486zm2.562-.962h-.34l.115-.484c.026-.109.039-.189.039-.239 0-.07-.024-.129-.07-.175a.236.236 0 0 0-.173-.07c-.067 0-.119.017-.154.054a.308.308 0 0 0-.076.124c-.014.046-.03.11-.046.191l-.129.6h-.456l-.13-.5a3.421 3.421 0 0 0-.075-.258.364.364 0 0 0-.1-.145.29.29 0 0 0-.204-.067.306.306 0 0 0-.204.064.365.365 0 0 0-.108.151 2.415 2.415 0 0 0-.075.256l-.129.498h-.454l-.129-.599a1.114 1.114 0 0 0-.085-.275c-.033-.063-.096-.095-.19-.095a.24.24 0 0 0-.243.246c0 .055.012.135.038.24l.115.483h-.336a.233.233 0 0 0-.228.238c0 .131.102.238.228.238h.448l.199.84c.013.054.027.111.044.174a.682.682 0 0 0 .063.162c.025.046.059.081.1.106a.304.304 0 0 0 .158.038c.08 0 .143-.021.19-.063a.344.344 0 0 0 .101-.143c.02-.052.045-.14.078-.261l.223-.853h.39l.22.853c.034.125.06.213.079.265a.337.337 0 0 0 .1.14.281.281 0 0 0 .19.062.278.278 0 0 0 .195-.064.358.358 0 0 0 .098-.149c.019-.056.043-.145.072-.267l.2-.84h.451a.233.233 0 0 0 .228-.238.233.233 0 0 0-.228-.238z" fill="#222"/>
    </g>
</svg>
