<svg width="16" height="16" viewBox="0 0 16 16" xmlns="http://www.w3.org/2000/svg" xmlns:xlink="http://www.w3.org/1999/xlink">
    <defs>
        <path id="12uhv8paqa" d="M0 0h15.168v14.363H0z"/>
    </defs>
    <g fill="none" fill-rule="evenodd">
        <g transform="translate(.364 .727)">
            <mask id="gw2zevtalb" fill="#fff">
                <use xlink:href="#12uhv8paqa"/>
            </mask>
            <path d="M10.977 13.413H9.67l-.676-2.317h3.677l.784 2.317h-2.48zm-9.84 0 .783-2.317h3.678l-.676 2.317H1.137zm6.89-2.242.655 2.242h-2.77l.653-2.242a.456.456 0 0 0 .014-.075h1.435c.003.025.006.05.014.075zM2.073 2.807h5.403a3.933 3.933 0 0 0 5.045 4.836v2.503H2.072v-7.34zM11.24.95a2.982 2.982 0 0 1 2.978 2.98 2.982 2.982 0 0 1-2.978 2.978 2.982 2.982 0 0 1-2.98-2.979A2.983 2.983 0 0 1 11.24.95zm2.23 9.54V7.16a3.927 3.927 0 1 0-5.566-5.303H1.598a.475.475 0 0 0-.476.475v8.159L.025 13.736a.475.475 0 0 0 .45.627H14.117a.476.476 0 0 0 .45-.627L13.47 10.49z" fill="#222" mask="url(#gw2zevtalb)"/>
        </g>
        <path d="M10.068 5.131h1.06v1.06a.475.475 0 0 0 .95 0v-1.06h1.06a.475.475 0 0 0 0-.95h-1.06v-1.06a.475.475 0 0 0-.95 0v1.06h-1.06a.475.475 0 0 0 0 .95" fill="#222"/>
    </g>
</svg>
