<svg width="14" height="14" viewBox="0 0 14 14" xmlns="http://www.w3.org/2000/svg" xmlns:xlink="http://www.w3.org/1999/xlink">
    <defs>
        <path id="2sup0h0xsa" d="M0 0h11.798v10.804H0z"/>
    </defs>
    <g fill="none" fill-rule="evenodd">
        <path d="M5.742 8.846a.415.415 0 0 1-.297-.707L8.233 5.3a.416.416 0 0 1 .593.582l-2.788 2.84a.415.415 0 0 1-.296.124M6.465 5.725a.571.571 0 1 1-1.143 0 .571.571 0 0 1 1.143 0" fill="#222"/>
        <path d="M5.894 5.223a.503.503 0 1 0 0 1.006.503.503 0 0 0 0-1.006m0 1.143a.642.642 0 0 1 0-1.281.641.641 0 0 1 0 1.281M8.949 8.26a.571.571 0 1 1-1.143 0 .571.571 0 0 1 1.143 0" fill="#222"/>
        <path d="M8.377 7.759a.503.503 0 1 0 .001 1.005.503.503 0 0 0 0-1.005m0 1.142a.642.642 0 1 1 0-1.283.642.642 0 0 1 0 1.283" fill="#222"/>
        <g transform="translate(1.273 1.59)">
            <mask id="8o8ymqxr0b" fill="#fff">
                <use xlink:href="#2sup0h0xsa"/>
            </mask>
            <path d="M.831 9.973h10.136V7.9c-.9-.246-1.576-1.272-1.576-2.497 0-1.225.676-2.251 1.576-2.497V.831H.83v2.074c.9.246 1.576 1.272 1.576 2.497C2.407 6.627 1.73 7.653.83 7.9v2.074zm10.551.832H.416A.416.416 0 0 1 0 10.389v-2.85c0-.23.186-.416.416-.416.628 0 1.16-.788 1.16-1.72 0-.934-.532-1.722-1.16-1.722A.416.416 0 0 1 0 3.265V.415C0 .187.186 0 .416 0h10.966c.23 0 .416.186.416.416v2.85c0 .229-.186.415-.416.415-.629 0-1.16.788-1.16 1.721s.531 1.721 1.16 1.721c.23 0 .416.187.416.416v2.85c0 .23-.186.416-.416.416z" fill="#222" mask="url(#8o8ymqxr0b)"/>
        </g>
    </g>
</svg>
