<svg width="14" height="14" viewBox="0 0 14 14" xmlns="http://www.w3.org/2000/svg" xmlns:xlink="http://www.w3.org/1999/xlink">
    <defs>
        <path id="lwzlzjzyxa" d="M0 0h2.302v4.041H0z"/>
        <path id="4collj1esc" d="M0 0h2.528v4.041H0z"/>
        <path id="he1ttu029e" d="M0 0h4.36v2.707H0z"/>
    </defs>
    <g fill="none" fill-rule="evenodd">
        <g transform="translate(10.682 5.095)">
            <mask id="s294m0i8gb" fill="#fff">
                <use xlink:href="#lwzlzjzyxa"/>
            </mask>
            <path d="M.563 4.041a1.8 1.8 0 0 1-.2-.015.416.416 0 1 1 .105-.825c.003 0 .061.008.096.009.49 0 .906-.315.906-.687V1.518c0-.372-.415-.687-.907-.687-.019 0-.037.003-.055.005L.452.842A.416.416 0 0 1 .38.014L.415.01C.463.005.512 0 .563 0c.958 0 1.739.681 1.739 1.518v1.005c0 .837-.78 1.518-1.74 1.518" fill="#222" mask="url(#s294m0i8gb)"/>
        </g>
        <g transform="translate(1.273 5.095)">
            <mask id="wzupvcoktd" fill="#fff">
                <use xlink:href="#4collj1esc"/>
            </mask>
            <path d="M1.739 4.041C.78 4.041 0 3.36 0 2.523V1.518C0 .681.78 0 1.739 0c.05 0 .1.005.148.01l.036.004a.416.416 0 0 1-.074.828L1.794.836C1.776.834 1.758.831 1.739.831c-.492 0-.908.315-.908.687v1.005c0 .372.416.687.908.687.019 0 .037-.003.055-.005l.04-.004.22-.031a.416.416 0 0 1 .116.823l-.226.032-.021.002-.036.004c-.049.005-.098.01-.148.01" fill="#222" mask="url(#wzupvcoktd)"/>
        </g>
        <g transform="translate(5.095 9.775)">
            <mask id="qhxbeye2sf" fill="#fff">
                <use xlink:href="#he1ttu029e"/>
            </mask>
            <path d="M1.163 1.876h2.033c.117-.055.332-.454.332-.725a.32.32 0 0 0-.32-.32H1.152a.32.32 0 0 0-.32.32c0 .271.216.67.332.725m2.046.831H1.15C.406 2.707 0 1.68 0 1.151 0 .516.516 0 1.15 0H3.21c.634 0 1.15.516 1.15 1.15 0 .529-.406 1.557-1.15 1.557" fill="#222" mask="url(#qhxbeye2sf)"/>
        </g>
        <path d="M5.683 10.871a.41.41 0 0 1-.06-.004 3.37 3.37 0 0 1-2.88-3.322V4.629a3.36 3.36 0 0 1 3.356-3.356h2.058a3.36 3.36 0 0 1 3.357 3.356V8.72a.416.416 0 1 1-.832 0V4.629a2.528 2.528 0 0 0-2.525-2.525H6.1a2.528 2.528 0 0 0-2.525 2.525v2.916c0 1.25.931 2.324 2.167 2.499a.416.416 0 0 1-.058.827" fill="#222"/>
    </g>
</svg>
