<svg width="16" height="16" viewBox="0 0 16 16" xmlns="http://www.w3.org/2000/svg" xmlns:xlink="http://www.w3.org/1999/xlink">
    <defs>
        <path id="bx7c3iidma" d="M0 0h12.364v12.364H0z"/>
    </defs>
    <g transform="translate(1.818 1.818)" fill="none" fill-rule="evenodd">
        <mask id="wk4nauc6vb" fill="#fff">
            <use xlink:href="#bx7c3iidma"/>
        </mask>
        <path d="M1.307 9.63h1.19V4.516h-1.19V9.63zm1.665.95H.832a.475.475 0 0 1-.475-.475V4.042c0-.263.212-.475.475-.475h2.14c.263 0 .475.212.475.475v6.063a.475.475 0 0 1-.475.475zM5.587 9.63h1.19V.95h-1.19v8.68zm1.665.95h-2.14a.476.476 0 0 1-.476-.475V.475c0-.262.213-.475.476-.475h2.14c.262 0 .475.213.475.475v9.63a.476.476 0 0 1-.475.475zM9.867 9.63h1.189V4.516h-1.19V9.63zm1.665.95h-2.14a.475.475 0 0 1-.476-.475V4.042c0-.263.213-.475.476-.475h2.14c.262 0 .475.212.475.475v6.063a.475.475 0 0 1-.475.475z" fill="#222" mask="url(#wk4nauc6vb)"/>
        <path d="M11.888 12.364H.476a.476.476 0 1 1 0-.951h11.412a.476.476 0 0 1 0 .95" fill="#000" mask="url(#wk4nauc6vb)"/>
    </g>
</svg>
