<svg width="16" height="16" viewBox="0 0 16 16" xmlns="http://www.w3.org/2000/svg" xmlns:xlink="http://www.w3.org/1999/xlink">
    <defs>
        <path id="8ortrt18fa" d="M0 0h10.293v12.727H0z"/>
    </defs>
    <g fill="none" fill-rule="evenodd">
        <g transform="translate(2.91 1.818)">
            <mask id="hausah5ufb" fill="#fff">
                <use xlink:href="#8ortrt18fa"/>
            </mask>
            <path d="M1.373.993a.38.38 0 0 0-.38.38v9.981c0 .21.17.38.38.38H8.92c.209 0 .379-.17.379-.38V1.373a.38.38 0 0 0-.38-.38H1.374zM8.92 12.727H1.373A1.374 1.374 0 0 1 0 11.354V1.373C0 .616.616 0 1.373 0H8.92c.756 0 1.372.616 1.372 1.373v9.981c0 .757-.616 1.373-1.372 1.373z" fill="#000" mask="url(#hausah5ufb)"/>
        </g>
        <path d="M12.428 5.87H3.684a.497.497 0 1 1 0-.993h8.744a.497.497 0 0 1 0 .993M6.741 7.599a.671.671 0 0 1-.657.684.671.671 0 0 1-.657-.684c0-.379.294-.685.657-.685.363 0 .657.306.657.685M8.713 7.599a.671.671 0 0 1-.657.684.671.671 0 0 1-.658-.684c0-.379.295-.685.658-.685.363 0 .657.306.657.685M10.685 7.599a.671.671 0 0 1-.657.684.671.671 0 0 1-.658-.684c0-.379.294-.685.658-.685.362 0 .657.306.657.685M6.741 9.481a.671.671 0 0 1-.657.685.671.671 0 0 1-.657-.685c0-.378.294-.684.657-.684.363 0 .657.306.657.684M8.713 9.481a.671.671 0 0 1-.657.685.671.671 0 0 1-.658-.685c0-.378.295-.684.658-.684.363 0 .657.306.657.684M10.685 9.481a.671.671 0 0 1-.657.685.671.671 0 0 1-.658-.685c0-.378.294-.684.658-.684.362 0 .657.306.657.684M6.741 11.364a.671.671 0 0 1-.657.685.671.671 0 0 1-.657-.685c0-.378.294-.685.657-.685.363 0 .657.307.657.685M8.713 11.364a.671.671 0 0 1-.657.685.671.671 0 0 1-.658-.685c0-.378.295-.685.658-.685.363 0 .657.307.657.685M10.685 11.364a.671.671 0 0 1-.657.685.671.671 0 0 1-.658-.685c0-.378.294-.685.658-.685.362 0 .657.307.657.685" fill="#000"/>
    </g>
</svg>
