<svg width="16" height="16" viewBox="0 0 16 16" xmlns="http://www.w3.org/2000/svg" xmlns:xlink="http://www.w3.org/1999/xlink">
    <defs>
        <path id="48ckz0myra" d="M0 0h9.8v4.02H0z"/>
        <path id="h81p6vj36c" d="M0 0h2.11v9.544H0z"/>
    </defs>
    <g fill="none" fill-rule="evenodd">
        <g transform="translate(1.09 10.107)">
            <mask id="52pmbzpeob" fill="#fff">
                <use xlink:href="#48ckz0myra"/>
            </mask>
            <path d="M.95.95v.923c0 1.146.334 1.197 1.03 1.197h5.77c-.202-.371-.314-.837-.314-1.37V.95H.95zm8.375 3.07H1.98C.235 4.02 0 2.935 0 1.873V.475C0 .213.213 0 .475 0h7.436c.263 0 .475.213.475.475V1.7c0 .663.247 1.37.94 1.37a.475.475 0 0 1 0 .95z" fill="#222" mask="url(#52pmbzpeob)"/>
        </g>
        <path d="M10.416 14.128a.475.475 0 0 1 0-.95c.699 0 1.053-.403 1.053-1.198v-1.093a.475.475 0 0 1 .95 0v1.093c0 1.584-1.034 2.148-2.003 2.148" fill="#222"/>
        <g transform="translate(11.468 1.818)">
            <mask id="qoyx1z9lkd" fill="#fff">
                <use xlink:href="#h81p6vj36c"/>
            </mask>
            <path d="M.476 9.544a.475.475 0 0 1-.475-.475V2.265C-.003 1.77-.009.943.507.425.788.143 1.167 0 1.635 0a.475.475 0 0 1 0 .95c-.31 0-.418.108-.453.144-.237.238-.234.796-.231 1.165V9.069a.475.475 0 0 1-.475.475" fill="#222" mask="url(#qoyx1z9lkd)"/>
        </g>
        <path d="M3.025 10.937a.475.475 0 0 1-.475-.475V4.186c0-1.438.867-2.368 2.21-2.368h8.169c1.891 0 1.891 1.78 1.891 2.541v1.043a.475.475 0 0 1-.475.475h-2.361a.475.475 0 0 1 0-.95h1.886v-.568c0-1.361-.29-1.59-.941-1.59H4.76c-.8 0-1.26.516-1.26 1.417v6.276a.475.475 0 0 1-.475.475" fill="#222"/>
        <path d="M9.577 5.462H5.26a.475.475 0 0 1 0-.95h4.317a.475.475 0 0 1 0 .95M8.195 7.535H5.26a.475.475 0 1 1 0-.95h2.935a.475.475 0 0 1 0 .95" fill="#222"/>
    </g>
</svg>
