<svg width="16" height="16" viewBox="0 0 16 16" xmlns="http://www.w3.org/2000/svg">
    <path d="M13.193 11.321a.51.51 0 0 1-.435.24H3.01a.509.509 0 0 1-.434-.237.407.407 0 0 1 .074-.51l.93-.845c.11-.1.173-.244.173-.394V6.16c0-2.327 1.93-4.368 4.13-4.368s4.13 2.041 4.13 4.368v3.416c0 .15.064.293.175.394l.93.845c.142.13.173.344.075.507m-5.31 2.888c-.945 0-1.743-.65-1.977-1.531h3.955a2.053 2.053 0 0 1-1.977 1.53m5.95-4.182-.756-.686V6.16c0-2.895-2.427-5.433-5.194-5.433S2.689 3.265 2.689 6.16v3.18l-.755.687a1.475 1.475 0 0 0-.27 1.848 1.58 1.58 0 0 0 1.346.75h1.804c.23 1.498 1.517 2.649 3.07 2.649 1.552 0 2.84-1.151 3.07-2.648h1.804c.548 0 1.063-.288 1.346-.754.36-.6.246-1.375-.27-1.845" fill="#666" fill-rule="evenodd"/>
</svg>
