<svg width="12" height="12" viewBox="0 0 12 12" xmlns="http://www.w3.org/2000/svg">
    <path d="M9.895 8.49a.383.383 0 0 1-.327.18h-7.31a.382.382 0 0 1-.326-.177.306.306 0 0 1 .055-.383l.697-.633a.399.399 0 0 0 .131-.296V4.62c0-1.745 1.448-3.275 3.098-3.275S9.01 2.874 9.01 4.619v2.562c0 .113.048.22.131.296l.697.633c.107.098.13.258.057.38m-3.982 2.166A1.54 1.54 0 0 1 4.43 9.508h2.966a1.54 1.54 0 0 1-1.483 1.148m4.462-3.136-.567-.515V4.619c0-2.17-1.82-4.074-3.895-4.074-2.076 0-3.896 1.904-3.896 4.074v2.386l-.566.515a1.106 1.106 0 0 0-.203 1.385c.212.348.598.564 1.01.564H3.61a2.338 2.338 0 0 0 2.303 1.986c1.164 0 2.13-.864 2.302-1.986h1.353c.411 0 .798-.216 1.01-.566.27-.45.184-1.031-.203-1.383" fill="#666" fill-rule="evenodd"/>
</svg>
