<svg width="12" height="13" viewBox="0 0 12 13" xmlns="http://www.w3.org/2000/svg" xmlns:xlink="http://www.w3.org/1999/xlink">
    <defs>
        <path id="ntdmypo6qa" d="M0 0h12v10.573H0z"/>
    </defs>
    <g transform="translate(0 1.938)" fill="none" fill-rule="evenodd">
        <mask id="n8kwp1oweb" fill="#fff">
            <use xlink:href="#ntdmypo6qa"/>
        </mask>
        <path d="m11.791 4.62-1.599-.991-.007-.004-.022-.01a.434.434 0 0 0-.076-.032l-.013-.006-.016-.001a.428.428 0 0 0-.085-.011l-.019-.001a.445.445 0 0 0-.103.013l-.016.006a.44.44 0 0 0-.172.098l-.014.01-1.288 1.283a.44.44 0 0 0 .622.624l.693-.69a4.41 4.41 0 0 1-4.39 4.783A4.41 4.41 0 0 1 .881 5.286a4.41 4.41 0 0 1 6.645-3.794.44.44 0 1 0 .449-.758A5.282 5.282 0 0 0 5.286 0 5.292 5.292 0 0 0 0 5.286a5.292 5.292 0 0 0 5.286 5.287 5.292 5.292 0 0 0 5.27-5.682l.771.478a.438.438 0 0 0 .607-.143.44.44 0 0 0-.143-.606" fill="#FFF" mask="url(#n8kwp1oweb)"/>
    </g>
</svg>
