<svg width="12" height="12" viewBox="0 0 12 12" xmlns="http://www.w3.org/2000/svg">
    <g fill="#666" fill-rule="evenodd">
        <path d="M1 11.04h10V5.28H1v5.76zM3 2.4v.48c0 .265.224.48.5.48a.49.49 0 0 0 .5-.48V2.4h4v.48c0 .265.224.48.5.48a.49.49 0 0 0 .5-.48V2.4h2v1.92H1V2.4h2zm8.5-.96H9V.48A.49.49 0 0 0 8.5 0a.49.49 0 0 0-.5.48v.96H4V.48A.49.49 0 0 0 3.5 0a.49.49 0 0 0-.5.48v.96H.5a.49.49 0 0 0-.5.48v9.6c0 .265.224.48.5.48h11a.49.49 0 0 0 .5-.48v-9.6a.49.49 0 0 0-.5-.48z"/>
        <path d="m8.034 6.14-2.08 2.08L4.8 7.189a.48.48 0 1 0-.64.716l1.494 1.333a.48.48 0 0 0 .659-.019l2.4-2.4a.48.48 0 1 0-.679-.678"/>
    </g>
</svg>
