<svg width="16" height="16" viewBox="0 0 16 16" xmlns="http://www.w3.org/2000/svg">
    <g fill="#666" fill-rule="evenodd">
        <path d="M1.333 14.72h13.334V7.04H1.333v7.68zM4 3.2v.64c0 .353.298.64.667.64a.654.654 0 0 0 .666-.64V3.2h5.334v.64c0 .353.298.64.666.64A.654.654 0 0 0 12 3.84V3.2h2.667v2.56H1.333V3.2H4zm11.333-1.28H12V.64a.654.654 0 0 0-.667-.64.654.654 0 0 0-.666.64v1.28H5.333V.64A.654.654 0 0 0 4.667 0 .654.654 0 0 0 4 .64v1.28H.667A.654.654 0 0 0 0 2.56v12.8c0 .353.298.64.667.64h14.666a.654.654 0 0 0 .667-.64V2.56a.654.654 0 0 0-.667-.64z"/>
        <path d="M10.712 8.188 7.939 10.96 6.4 9.585a.64.64 0 1 0-.852.955l1.991 1.777a.639.639 0 0 0 .879-.025l3.2-3.2a.64.64 0 1 0-.905-.904"/>
    </g>
</svg>
