<svg width="16" height="16" viewBox="0 0 16 16" xmlns="http://www.w3.org/2000/svg" xmlns:xlink="http://www.w3.org/1999/xlink">
    <defs>
        <path id="9y53nwc3sa" d="M0 0h16v14.097H0z"/>
    </defs>
    <g transform="translate(0 1.333)" fill="none" fill-rule="evenodd">
        <mask id="r0vp4ql6lb" fill="#fff">
            <use xlink:href="#9y53nwc3sa"/>
        </mask>
        <path d="M15.722 6.16 13.59 4.838l-.01-.004-.03-.015a.578.578 0 0 0-.1-.042c-.007-.001-.012-.005-.018-.007l-.021-.003a.57.57 0 0 0-.113-.014l-.026-.002a.593.593 0 0 0-.137.019l-.022.007a.588.588 0 0 0-.23.131c-.005.005-.012.008-.017.014l-1.718 1.71a.587.587 0 0 0 .83.833l.923-.92a5.88 5.88 0 0 1-5.852 6.377 5.88 5.88 0 0 1-5.874-5.874 5.88 5.88 0 0 1 5.873-5.873c1.053 0 2.086.281 2.987.814a.587.587 0 1 0 .598-1.01A7.043 7.043 0 0 0 7.048 0 7.056 7.056 0 0 0 0 7.048a7.056 7.056 0 0 0 7.048 7.049 7.056 7.056 0 0 0 7.028-7.576l1.027.637a.584.584 0 0 0 .809-.19.587.587 0 0 0-.19-.808" fill="#666" mask="url(#r0vp4ql6lb)"/>
    </g>
</svg>
