<svg width="16" height="16" viewBox="0 0 16 16" xmlns="http://www.w3.org/2000/svg" xmlns:xlink="http://www.w3.org/1999/xlink">
    <defs>
        <path id="9cfcumlfma" d="M0 0h15.337v16H0z"/>
    </defs>
    <g fill="none" fill-rule="evenodd">
        <mask id="57kc1edwmb" fill="#fff">
            <use xlink:href="#9cfcumlfma"/>
        </mask>
        <path d="M7.668 10.629a2.629 2.629 0 1 1 0-5.258 2.629 2.629 0 0 1 0 5.258m7.442-.505L13.703 9.1c.069-.371.103-.74.103-1.099 0-.36-.034-.728-.103-1.099l1.407-1.025a.552.552 0 0 0 .153-.722L13.93 2.846a.552.552 0 0 0-.701-.229l-1.591.707a6.162 6.162 0 0 0-1.904-1.1L9.55.493A.552.552 0 0 0 9 0H6.336a.552.552 0 0 0-.549.493l-.184 1.73a6.16 6.16 0 0 0-1.904 1.1l-1.59-.706a.552.552 0 0 0-.702.229L.074 5.154a.552.552 0 0 0 .153.722L1.634 6.9A6.02 6.02 0 0 0 1.531 8c0 .36.034.728.103 1.099L.227 10.124a.552.552 0 0 0-.153.722l1.333 2.308a.552.552 0 0 0 .701.228l1.591-.706a6.165 6.165 0 0 0 1.905 1.1l.183 1.73c.03.281.267.494.549.494h2.665a.552.552 0 0 0 .549-.493l.184-1.73a6.158 6.158 0 0 0 1.904-1.1l1.59.705c.259.115.561.016.702-.228l1.333-2.308a.552.552 0 0 0-.153-.722" fill="#FFF" mask="url(#57kc1edwmb)"/>
    </g>
</svg>
