<svg width="12" height="12" viewBox="0 0 12 12" xmlns="http://www.w3.org/2000/svg" xmlns:xlink="http://www.w3.org/1999/xlink">
    <defs>
        <path id="u1m26atida" d="M0 0h11.503v12H0z"/>
    </defs>
    <g fill="none" fill-rule="evenodd">
        <mask id="s6vhebw1cb" fill="#fff">
            <use xlink:href="#u1m26atida"/>
        </mask>
        <path d="M5.751 7.972a1.972 1.972 0 1 1 0-3.944 1.972 1.972 0 0 1 0 3.944m5.581-.379-1.055-.769c.052-.278.078-.554.078-.824 0-.27-.026-.546-.078-.824l1.055-.77a.414.414 0 0 0 .115-.54l-1-1.732a.414.414 0 0 0-.525-.171l-1.194.53A4.622 4.622 0 0 0 7.3 1.667L7.162.37A.414.414 0 0 0 6.751 0H4.752c-.212 0-.39.16-.412.37l-.137 1.297a4.62 4.62 0 0 0-1.428.826l-1.194-.53a.414.414 0 0 0-.526.171l-1 1.732a.414.414 0 0 0 .115.54l1.056.77A4.516 4.516 0 0 0 1.148 6c0 .27.026.546.078.824l-1.056.77a.414.414 0 0 0-.115.54l1 1.732a.414.414 0 0 0 .526.17l1.194-.529c.422.359.908.64 1.428.826l.137 1.297c.023.21.2.37.412.37h1.999c.212 0 .389-.16.411-.37l.138-1.297a4.618 4.618 0 0 0 1.428-.826l1.194.53c.193.086.42.012.526-.171l1-1.732a.414.414 0 0 0-.116-.54" fill="#666" mask="url(#s6vhebw1cb)"/>
    </g>
</svg>
