<svg width="16" height="16" viewBox="0 0 16 16" xmlns="http://www.w3.org/2000/svg">
    <g fill="#FFF" fill-rule="evenodd">
        <path d="M11.458 11.111a.663.663 0 0 1-.396-.13L7.756 8.535A.667.667 0 0 1 7.486 8V3.111a.667.667 0 0 1 1.333 0v4.553l3.036 2.244a.667.667 0 0 1-.397 1.203"/>
        <path d="M8 1.333A6.674 6.674 0 0 0 1.333 8 6.674 6.674 0 0 0 8 14.667 6.674 6.674 0 0 0 14.667 8 6.674 6.674 0 0 0 8 1.333M8 16c-4.411 0-8-3.589-8-8s3.589-8 8-8 8 3.589 8 8-3.589 8-8 8"/>
    </g>
</svg>
