<svg width="16" height="16" viewBox="0 0 16 16" xmlns="http://www.w3.org/2000/svg" xmlns:xlink="http://www.w3.org/1999/xlink">
    <defs>
        <path id="u4fupjnwha" d="M0 0h16v16H0z"/>
    </defs>
    <g fill="none" fill-rule="evenodd">
        <mask id="bqgc4nq68b" fill="#fff">
            <use xlink:href="#u4fupjnwha"/>
        </mask>
        <path d="m11.12 12.333-.99-4.722h2.078l-1.088 4.722zM7.35 6.314l.62-2.685.562 2.685H7.35zm-2.72 6.02L3.644 7.61H5.72l-1.09 4.722zm10.72-6.02h-1.513l1.273-5.52a.649.649 0 1 0-1.264-.291l-1.34 5.811H9.858L8.643.516A.65.65 0 0 0 8.008 0l-.012.001a.649.649 0 0 0-.636.502L6.02 6.314H3.37L2.157.516a.65.65 0 0 0-1.27.266l1.16 5.532H.648a.649.649 0 1 0 0 1.297h1.668l1.65 7.873c.005.023.013.045.02.067.004.012.006.025.011.037a.64.64 0 0 0 .125.2l.027.026a.64.64 0 0 0 .06.052c.012.01.025.018.038.027a.682.682 0 0 0 .106.056c.025.01.05.018.076.026l.026.008.013.002c.043.009.087.015.132.015h.001a.63.63 0 0 0 .123-.013h.01c.008-.003.016-.007.025-.009a.62.62 0 0 0 .186-.08c.013-.008.027-.016.04-.026a.64.64 0 0 0 .057-.048l.03-.028a.63.63 0 0 0 .062-.077l.01-.014A.654.654 0 0 0 5.2 15.6c.006-.013.009-.028.014-.042.007-.02.015-.04.02-.06L7.052 7.61h1.753l1.65 7.873c.004.023.012.045.02.067l.01.037a.64.64 0 0 0 .126.2c.008.01.018.017.027.026a.64.64 0 0 0 .06.052c.012.01.025.018.038.027a.654.654 0 0 0 .182.082c.008.002.016.006.026.008l.013.002a.63.63 0 0 0 .256.002h.01c.008-.003.015-.007.024-.009a.62.62 0 0 0 .283-.154c.01-.01.021-.018.03-.028a.63.63 0 0 0 .062-.077l.011-.014a.654.654 0 0 0 .055-.105l.013-.042c.007-.02.015-.04.02-.06L13.54 7.61h1.812a.648.648 0 1 0 0-1.297z" fill="#FFF" mask="url(#bqgc4nq68b)"/>
    </g>
</svg>
