<svg width="16" height="16" viewBox="0 0 16 16" xmlns="http://www.w3.org/2000/svg" xmlns:xlink="http://www.w3.org/1999/xlink">
    <defs>
        <path id="5f2zitpgma" d="M0 0h16v16H0z"/>
    </defs>
    <g fill="none" fill-rule="evenodd">
        <mask id="fapxg4oqsb" fill="#fff">
            <use xlink:href="#5f2zitpgma"/>
        </mask>
        <path d="m10.6 11.611-.825-3.935h1.732l-.907 3.935zM7.46 6.595l.515-2.237.469 2.237h-.985zm-2.267 5.016L4.37 7.676H6.1l-.908 3.935zm8.933-5.016h-1.26l1.06-4.6a.54.54 0 1 0-1.053-.243l-1.117 4.843H9.55L8.536 1.763a.541.541 0 0 0-.529-.43l-.01.001a.54.54 0 0 0-.53.418L6.35 6.595H4.142L3.13 1.763a.541.541 0 0 0-1.058.222l.966 4.61H1.874a.54.54 0 1 0 0 1.081h1.39l1.375 6.561c.004.02.01.037.017.055.003.01.005.021.01.032.024.062.06.118.103.166l.023.022c.016.015.032.03.05.043a.568.568 0 0 0 .184.09l.02.008.011.001a.531.531 0 0 0 .11.013h.001a.525.525 0 0 0 .103-.011h.008c.007-.002.013-.006.02-.007a.517.517 0 0 0 .156-.067l.033-.022a.533.533 0 0 0 .047-.04c.009-.008.018-.015.026-.024a.525.525 0 0 0 .051-.064l.01-.011a.545.545 0 0 0 .045-.087c.005-.012.007-.024.011-.035.006-.017.013-.034.017-.051L7.21 7.676h1.46l1.375 6.561c.004.02.011.037.017.055l.01.032c.024.062.06.118.103.166l.023.022c.016.015.032.03.05.043l.032.022a.545.545 0 0 0 .151.068l.022.008.01.001a.531.531 0 0 0 .11.013h.001c.036 0 .07-.004.103-.011h.008c.007-.002.014-.006.02-.007a.517.517 0 0 0 .237-.129l.025-.024a.525.525 0 0 0 .052-.064l.009-.011a.545.545 0 0 0 .045-.087l.012-.035c.005-.017.012-.034.016-.051l1.515-6.572h1.51a.54.54 0 1 0 0-1.08z" fill="#666" mask="url(#fapxg4oqsb)"/>
    </g>
</svg>
