<svg width="16" height="16" viewBox="0 0 16 16" xmlns="http://www.w3.org/2000/svg" xmlns:xlink="http://www.w3.org/1999/xlink">
    <defs>
        <path id="yxzvf3vgda" d="M0 0h13.263v16H0z"/>
    </defs>
    <g transform="translate(1.333)" fill="none" fill-rule="evenodd">
        <mask id="dx242t85cb" fill="#fff">
            <use xlink:href="#yxzvf3vgda"/>
        </mask>
        <path d="m4.668 12.73-1.214-.937-1.215-.937 6.07-7.865.802.62 1.626 1.254-6.069 7.865zm-2.858-.659 1.772 1.368-2.173.938.401-2.306zM9.918 1.23a.673.673 0 0 1 .499.135l1.359 1.049a.671.671 0 0 1 .122.948l-.413.534-2.429-1.874.413-.535a.672.672 0 0 1 .449-.257zm3.33 1.476a1.887 1.887 0 0 0-.725-1.261L11.164.396c-.401-.31-.9-.445-1.403-.38a1.887 1.887 0 0 0-1.26.723l-.788 1.02-6.817 8.834a.62.62 0 0 0-.068.113c-.004.008-.006.017-.01.024a.611.611 0 0 0-.035.114c0 .006-.004.012-.005.018l-.769 4.421a.612.612 0 0 0 .846.667l4.166-1.8c.008-.003.014-.009.022-.012a.607.607 0 0 0 .092-.055l.032-.023a.606.606 0 0 0 .096-.097l6.817-8.834.787-1.02c.31-.401.445-.9.38-1.403z" fill="#666" mask="url(#dx242t85cb)"/>
    </g>
</svg>
