<svg width="12" height="12" viewBox="0 0 12 12" xmlns="http://www.w3.org/2000/svg" xmlns:xlink="http://www.w3.org/1999/xlink">
    <defs>
        <path id="h9nfi48aya" d="M0 0h9.947v12H0z"/>
    </defs>
    <g transform="translate(1)" fill="none" fill-rule="evenodd">
        <mask id="5iyzlrzxib" fill="#fff">
            <use xlink:href="#h9nfi48aya"/>
        </mask>
        <path d="m3.501 9.548-.91-.703-.912-.703 4.553-5.899.601.465 1.22.941L3.5 9.548zm-2.143-.495 1.329 1.026-1.63.704.3-1.73zm6.08-8.13a.505.505 0 0 1 .375.101l1.019.786a.504.504 0 0 1 .091.711l-.31.401-1.82-1.405.309-.401a.504.504 0 0 1 .336-.194zM9.935 2.03a1.415 1.415 0 0 0-.542-.946L8.373.297A1.414 1.414 0 0 0 7.321.012a1.415 1.415 0 0 0-.946.543l-.59.764L.672 7.945a.465.465 0 0 0-.051.085l-.007.018a.458.458 0 0 0-.026.085l-.005.013-.576 3.316a.459.459 0 0 0 .634.5l3.125-1.349c.006-.002.01-.007.016-.01a.455.455 0 0 0 .07-.041c.007-.006.016-.01.023-.017a.455.455 0 0 0 .072-.073L9.06 3.846l.59-.764c.233-.301.334-.675.285-1.052z" fill="#666" mask="url(#5iyzlrzxib)"/>
    </g>
</svg>
