<svg width="16" height="16" viewBox="0 0 16 16" xmlns="http://www.w3.org/2000/svg">
    <g fill="#FFF" fill-rule="evenodd">
        <path d="M2.614 14.667h10.772V3.922H2.614v10.745zm2.81-12.079h5.151V1.333h-5.15v1.255zm8.628 0h-2.144V.667A.667.667 0 0 0 11.242 0H4.758a.667.667 0 0 0-.666.667v1.921H.667a.667.667 0 1 0 0 1.334h.614v11.411c0 .369.299.667.667.667h12.104a.666.666 0 0 0 .667-.667V3.922h.614a.666.666 0 1 0 0-1.334h-1.28z"/>
        <path d="M6.065 5.176a.667.667 0 0 0-.666.667v6.902a.667.667 0 1 0 1.333 0V5.843a.667.667 0 0 0-.667-.667M9.935 5.176a.667.667 0 0 0-.667.667v6.902a.667.667 0 1 0 1.333 0V5.843a.667.667 0 0 0-.666-.667"/>
    </g>
</svg>
