<svg width="12" height="12" viewBox="0 0 12 12" xmlns="http://www.w3.org/2000/svg">
    <g fill="#666" fill-rule="evenodd">
        <path d="M1.96 11h8.08V2.941H1.96V11zM4.07 1.941H7.93V1H4.07v.941zm6.47 0H8.931V.5a.5.5 0 0 0-.5-.5H3.57a.5.5 0 0 0-.5.5v1.441H.5a.5.5 0 1 0 0 1h.46V11.5a.5.5 0 0 0 .5.5h9.08a.5.5 0 0 0 .5-.5V2.941h.46a.5.5 0 1 0 0-1h-.96z"/>
        <path d="M4.549 3.882a.5.5 0 0 0-.5.5V9.56a.5.5 0 1 0 1 0V4.382a.5.5 0 0 0-.5-.5M7.451 3.882a.5.5 0 0 0-.5.5V9.56a.5.5 0 1 0 1 0V4.382a.5.5 0 0 0-.5-.5"/>
    </g>
</svg>
